<svg width="113" height="110" viewBox="0 0 113 110" fill="none" xmlns="http://www.w3.org/2000/svg">
<g clip-path="url(#clip0_1_690)">
<path d="M56.422 109.974C87.3925 109.974 112.499 85.4726 112.499 55.2487C112.499 25.0248 87.3925 0.523438 56.422 0.523438C25.4516 0.523438 0.345123 25.0248 0.345123 55.2487C0.345123 85.4726 25.4516 109.974 56.422 109.974Z" fill="#DDE9FF"/>
<g clip-path="url(#clip1_1_690)">
<path d="M62.7223 52.7437L50.9898 49.2583C49.6319 48.8612 48.6868 47.5707 48.6868 46.1368C48.6868 44.339 50.1208 42.883 51.8915 42.883H59.094C60.4193 42.883 61.7229 43.2911 62.8092 44.0411C63.4719 44.4934 64.3627 44.3831 64.9276 43.8205L68.7079 40.0704C69.4792 39.3093 69.3708 38.0409 68.5124 37.3681C65.851 35.2503 62.5268 34.0702 59.1157 34.0591V28.7648C59.1157 27.7942 58.3335 27 57.3775 27H53.9012C52.9453 27 52.1631 27.7942 52.1631 28.7648V34.0591H51.8915C44.9715 34.0591 39.4094 40.0925 40.0504 47.2508C40.5067 52.3356 44.3306 56.4719 49.1539 57.9056L60.2889 61.2146C61.6468 61.6228 62.592 62.9022 62.592 64.3361C62.592 66.134 61.158 67.5899 59.3873 67.5899H52.1848C50.8595 67.5899 49.5559 67.1818 48.4695 66.4317C47.8069 65.9797 46.9161 66.0898 46.3512 66.6525L42.5707 70.4025C41.7994 71.1636 41.908 72.432 42.7662 73.1048C45.4278 75.2225 48.752 76.4028 52.1631 76.4138V81.7082C52.1631 82.6787 52.9453 83.4729 53.9012 83.4729H57.3775C58.3335 83.4729 59.1157 82.6787 59.1157 81.7082V76.3918C64.178 76.2924 68.9253 73.2372 70.5983 68.3731C72.9338 61.5786 69.0121 54.6078 62.7223 52.7437Z" fill="#488ABA"/>
</g>
<g clip-path="url(#clip2_1_690)">
<path d="M53.1411 98.2684C41.8737 98.5087 31.7086 89.7541 28.0345 85.3466C27.8304 84.8458 27.6671 83.7239 28.6468 83.243C29.8715 82.6422 27.2974 82.2997 39.9754 89.2531C50.3854 94.9627 65.3883 90.7606 69.9809 87.4502C72.0189 85.9812 74.2674 84.45 78.2476 79.0359C81.8078 74.1935 82.9424 66.9156 82.8405 63.7102H78.2476L88.3517 46.8818L97.8432 63.7102H92.6381C92.6381 66.7152 91.4134 74.5885 86.5146 82.0411C81.6157 89.4936 74.2674 93.7609 71.2057 94.9627C69.3686 95.6841 64.4085 98.028 53.1411 98.2684Z" fill="#488ABA"/>
</g>
<path d="M59.9172 11.0049C71.4909 10.7627 81.9322 19.5811 85.7064 24.0206C85.916 24.5251 86.0838 25.6551 85.0774 26.1394C83.8193 26.7448 86.4634 27.0897 73.4408 20.0856C62.7478 14.3345 47.3371 18.5673 42.6196 21.9018C40.5263 23.3815 38.2167 24.9238 34.1281 30.3771C30.4712 35.2548 29.3058 42.5855 29.4106 45.8143H34.1281L23.7496 62.765L14 45.8143H19.3466C19.3466 42.7875 20.6046 34.8569 25.6366 27.3502C30.6686 19.8434 38.2167 15.5452 41.3616 14.3345C43.2487 13.608 48.3435 11.247 59.9172 11.0049Z" fill="#488ABA"/>
</g>
<defs>
<clipPath id="clip0_1_690">
<rect width="112.154" height="109.451" fill="white" transform="translate(0.345123 0.523438)"/>
</clipPath>
<clipPath id="clip1_1_690">
<rect width="31.2799" height="56.4729" fill="white" transform="translate(40 27)"/>
</clipPath>
<clipPath id="clip2_1_690">
<rect width="71.8654" height="53.4348" fill="white" transform="translate(25.9777 46.0667)"/>
</clipPath>
</defs>
</svg>
